<svg viewBox="0 0 200 200" width="200" height="200" fill="none" xmlns="http://www.w3.org/2000/svg">
  <defs>
    <linearGradient id="gRibbon" x1="40" y1="140" x2="95" y2="25" gradientUnits="userSpaceOnUse">
      <stop offset="0%" stop-color="#0E7846" />
      <stop offset="50%" stop-color="#16A765" />
      <stop offset="100%" stop-color="#25D366" />
    </linearGradient>
    <linearGradient id="bRibbon" x1="90" y1="20" x2="160" y2="120" gradientUnits="userSpaceOnUse">
      <stop offset="0%" stop-color="#0B4FC0" />
      <stop offset="45%" stop-color="#1976F3" />
      <stop offset="100%" stop-color="#4DACF9" />
    </linearGradient>
    <linearGradient id="rRibbon" x1="120" y1="90" x2="165" y2="155" gradientUnits="userSpaceOnUse">
      <stop offset="0%" stop-color="#B31A21" />
      <stop offset="50%" stop-color="#E52B32" />
      <stop offset="100%" stop-color="#FF4F56" />
    </linearGradient>
    <linearGradient id="gOrbit" x1="50" y1="145" x2="170" y2="55" gradientUnits="userSpaceOnUse">
      <stop offset="0%" stop-color="#D89A25" />
      <stop offset="40%" stop-color="#F7B928" />
      <stop offset="80%" stop-color="#FFE066" />
      <stop offset="100%" stop-color="#D89A25" />
    </linearGradient>
    <linearGradient id="bBag" x1="68" y1="80" x2="88" y2="135" gradientUnits="userSpaceOnUse">
      <stop offset="0%" stop-color="#2C8BFC" />
      <stop offset="100%" stop-color="#1055C4" />
    </linearGradient>
    <linearGradient id="yBag" x1="82" y1="65" x2="118" y2="135" gradientUnits="userSpaceOnUse">
      <stop offset="0%" stop-color="#FFDF59" />
      <stop offset="70%" stop-color="#F7B928" />
      <stop offset="100%" stop-color="#D89A25" />
    </linearGradient>
    <linearGradient id="rBag" x1="115" y1="85" x2="135" y2="135" gradientUnits="userSpaceOnUse">
      <stop offset="0%" stop-color="#FF4A50" />
      <stop offset="100%" stop-color="#C4151C" />
    </linearGradient>
  </defs>
  <rect width="200" height="200" rx="36" fill="#F8F2E7"/>
  <path d="M98 25 C75 45 42 98 40 142 C39 146 44 148 50 144 C62 135 78 112 92 78 Z" fill="url(#gRibbon)" />
  <path d="M96 24 C106 20 115 28 122 45 C136 78 152 110 162 145 C163 150 157 154 152 150 C140 140 128 112 115 78 Z" fill="url(#bRibbon)" />
  <path d="M115 88 C128 108 145 132 165 150 C167 152 165 156 161 155 C142 152 125 138 112 115 Z" fill="url(#rRibbon)" />
  <rect x="70" y="86" width="18" height="34" rx="2.5" fill="url(#bBag)" transform="rotate(-8 79 103)" />
  <path d="M75 85 C75 79 83 79 83 85" stroke="#17191C" stroke-width="2" fill="none" transform="rotate(-8 79 103)" />
  <rect x="114" y="86" width="18" height="34" rx="2.5" fill="url(#rBag)" transform="rotate(7 123 103)" />
  <path d="M119 85 C119 79 127 79 127 85" stroke="#17191C" stroke-width="2" fill="none" transform="rotate(7 123 103)" />
  <rect x="83" y="74" width="34" height="48" rx="4" fill="url(#yBag)" />
  <path d="M93 74 C93 63 107 63 107 74" stroke="#17191C" stroke-width="2.5" fill="none" />
  <path d="M45 135 C65 142 120 135 168 85 C176 76 172 70 162 76 C124 105 78 122 45 125 Z" fill="url(#gOrbit)" />
  <path d="M158 52 Q158 43 162 38 Q167 43 167 52 Q167 61 162 66 Q158 61 158 52 Z" fill="#F7B928" transform="rotate(15 162 52)" />
  <circle cx="162" cy="52" r="2.5" fill="#FFFDF8" />
</svg>
